<?xml version="1.0" encoding="UTF-8"?>
<svg version="1.1" viewBox="0 0 1200 1200" width="300" height="300" xmlns="http://www.w3.org/2000/svg">
<path transform="translate(582,190)" d="m0 0h10l7 3 5 5 7 9 14 25 6 13 1 7 26-11 18-7 22-5 21-2h20l24 3 17 5 16 7 15 8 17 11 13 10 10 9 14 14 15 20 8 13 8 15 6 15 9 16 5 5 1 2v13l-4 11-5 5-8 2-26 2-16-1-18-2-15-4-19-10-10-6-12-5-8-2 8 19 9 28 4 20 3 32v29l-3 31-4 19-10 30-8 17-10 19-13 18-14 15-3 4h-2l-2 4-13 12-11 9-15 10-24 13-18 6-31 8-6 1h-38l-20-4-27-8-13-5-17-8-16-10-12-9-12-11-8-8-9-11-13-17-14-23-7-15-8-21-6-25-5-26-1-12v-17l2-25 5-31 6-24 6-16 11-24 13-21 10-13 6-8h2l2-4 10-12 8-7 15-12 11-8 14-8 16-8 19-7 17-5 10-2h9l-5-10-13-18-7-11-2-8 3-8 7-7 13-8z" fill="#FDDE65"/>
<path transform="translate(582,190)" d="m0 0h10l7 3 5 5 7 9 14 25 6 13 1 7 26-11 18-7 22-5 21-2h20l24 3 17 5 16 7 15 8 17 11 13 10 10 9 14 14 15 20 8 13 8 15 6 15 9 16 5 5 1 2v13l-4 11-5 5-8 2-26 2-16-1-18-2-15-4-19-10-10-6-12-5-8-2 8 19 9 28 4 20 3 32v29l-3 31-4 19-10 30-8 17-10 19-13 18-14 15-3 4h-2l-2 4-13 12-11 9-15 10-24 13-18 6-31 8-6 1h-38l-20-4-27-8-13-5-17-8-16-10-12-9-12-11-8-8-9-11-13-17-14-23-7-15-8-21-6-25-5-26-1-12v-17l2-25 5-31 6-24 6-16 11-24 13-21 10-13 6-8h2l2-4 10-12 8-7 15-12 11-8 14-8 16-8 19-7 17-5 10-2h9l-5-10-13-18-7-11-2-8 3-8 7-7 13-8zm2 93-19 3-19 5-17 7-15 8-17 12-13 11-10 9-10 11-11 14-10 15-10 17-8 19-9 29-3 17-3 38v28l7 6 5 5 12 11 32 24 22 12 15 7 19 7 19 5 25 4 9 1h24l30-4 24-5 30-11 16-8 20-11 17-12 13-10 12-11 16-16 2-7v-25l-4-36-6-31-6-18-9-19-9-14-9-11-10-9-4-2v-2l-11-9-9-9-8-7-4-5h-2l-2-4-8-7-13-9-13-6-15-3-20-3-10-1z" fill="#132227"/>
<path transform="translate(773,542)" d="m0 0 2 1-4 16-5 16-9 21-9 17-12 17-11 13-19 19-11 9-17 11-16 8-15 6-16 5-21 3h-24l-23-3-17-4-20-7-18-8-17-10-14-12-18-18-14-19-12-21-7-15-7-20-4-12 1-2 12 8 21 16 35 21 18 7 15 6 16 4 27 4 20 2h23l33-4 20-4 22-8 23-10 14-8 11-7 12-10 11-8 14-12z" fill="#A8E45D"/>
<path transform="translate(133,730)" d="m0 0h98l10 2 8 5 5 6 3 8v18l-4 11-7 6-7 2-59 1-1 5h26l12 1 10 5 7 8 4 10v9l-4 9-5 8-7 5-10 1h-25l-9 1v3l2 1 60 1 8 4 6 8 4 10v10l-3 12-6 9-5 4-6 2-11 1-43 1h-48l-9-3-7-8-6-10-1-4-1-42v-86l1-13 5-10 4-5 8-5z" fill="#132227"/>
<path transform="translate(461,747)" d="m0 0 9 2 7 6 2 4 1 11v116l-9 10-9 3-7-3-4-5-3-7v-57l1-16-4 2-10 16-8 10-7 9-9 10-5 3-6-2-7-7-11-14-10-12-9-13h-2l1 7v63l-3 8-5 5-4 2-8-1-8-7-3-5-1-25v-64l1-30 2-8 5-6 5-3 9-1 7 3 8 8 9 14 10 14 10 13 9 14 2 1 2-6 6-10 14-19 10-14 7-10 9-7z" fill="#132227"/>
<path transform="translate(665,747)" d="m0 0h9l6 3 11 11 11 14 13 16 9 11 11 13 8 10 7 10-1-15v-49l1-13 4-7 7-4h8l8 4 4 6 1 5v122l-3 5-4 5-8 4-8-1-8-7-7-8-12-16-11-14-20-25-10-13-5-4v45l-1 31-4 7-7 5-8 1-6-4-5-5-1-3v-128l3-6 5-5z" fill="#132127"/>
<path transform="translate(872,747)" d="m0 0h16l15 4 17 9 12 11 1 5-14 15-4 3-5-1-16-8-9-3-9-1-10 2-12 6-6 5-6 12-3 13 1 14 5 13 6 8 7 6 12 5 12 1 15-4 6-4 1-2-1-11h-13l-12-2-3-4-1-4v-8l3-9 4-3h46l6 3 4 5 2 5v39l-3 7-6 7-9 6-12 5-21 6h-19l-15-4-16-8-11-9-9-10-6-11-5-16-2-11v-11l5-22 5-12 9-12 7-7 11-7 14-7z" fill="#132127"/>
<path transform="translate(1018,747)" d="m0 0h8l8 3 7 8 8 16 14 34 13 30 11 27 6 15-1 7-7 8-6 3-8-1-6-4-6-8-4-10-2-6h-62l-2 7-7 14-4 5-6 3-9-1-5-3-4-4-1-3v-8l5-14 8-19 8-21 10-25 13-31 6-12 9-8zm3 44-8 20-8 21-2 4v3h39l-6-16-10-25-3-7z" fill="#132127"/>
<path transform="translate(563,748)" d="m0 0 9 1 7 4 6 8 10 21 11 28 12 28 11 26 7 17v6l-6 8-5 3h-9l-6-4-5-6-6-13-2-5-61-1-2 6-8 16-4 5-5 3-8-1-8-6-3-5 1-10 10-22 8-22 12-29 7-16 9-22 6-10 7-6zm2 45-15 38-2 5v3h14l22 1-1-5-10-24-6-17z" fill="#132127"/>
<path transform="translate(221,748)" d="m0 0h10l5 3 3 3v11l-3 5-2 1-69 3-4 1v37h31l19 1 5 3 2 3v9l-4 4-4 1-47 3-2 1-1 5v18l3 10 7 2 56 1 9 1 4 5 1 8-4 7-3 2h-91l-6-4-4-5v-127l3-5 6-5 18-1z" fill="#FBDB63"/>
<path transform="translate(650,296)" d="m0 0 18 6h3l7 5v2l4 2 5 2 1 3h2l7 8 13 12 10 9 2 1v2l4 2 7 7 6 5 10 14 9 16 8 19 5 19 4 22 4 36v25l-2 7-24 24-14 11-23 16-13 7-2-1 8-11 5-5 8-11 8-18 7-21 5-24 1-7v-42l-4-22-7-19-9-19-9-14-9-12-8-9v-2h-2l-7-8-19-19-8-7-5-4v-2l-4-2z" fill="#E1A73C"/>
<path transform="translate(584,283)" d="m0 0h23l24 3 11 2-4 4-2 1h-14l-7-1h-18l-31 6-17 6-12 5-19 10-8 5 14 14 1 2v9l-5 12-8 10-8 4-5 1h-8l-7-3-6-8-2-6-4 2-10 15-11 18-10 19-8 22-6 22-2 16-2 29v35l-5-3-8-8v-28l3-38 3-17 9-29 6-15 13-23 12-17 12-14 11-12 14-12 15-11 13-8 19-9 20-6 15-3z" fill="#FDFDFD"/>
<path transform="translate(773,542)" d="m0 0 2 1-4 16-5 16-9 21-9 17-12 17-11 13-19 19-11 9-17 11-16 8-15 6-16 5-21 3h-24l-23-3-17-4-20-7-12-5v-1h6l18 5 25 4h31l22-5 16-6 19-10 16-11 10-8 12-11 10-11 9-15 8-16 8-17h2l1-4 14-11 13-10 10-9z" fill="#6EC061"/>
<path transform="translate(680,277)" d="m0 0 11 2 30 8 33 11 4 3 6 23 5 12 4 3h6l1-12-3-16-1-4 5 2 23 12 20 11 9 7 18 13 18 11 8 6v3l-13 1-25-1-22-4-36-9-14-5-10-5-15-10-13-11-7-7-8-7-10-9-13-12-9-10-2-3z" fill="#A7E35D"/>
<path transform="translate(230,746)" d="m0 0 8 2v2h2l1 2 1 13-3 8-4 4-3 4-16 2h-42l-4 1v15l12 5 24 1h14v-5h3l6 2 6 8 3 8v9l-4 9-5 8-7 5-10 1h-25l-9 1v3l2 1 60 1 3 1 4 18v9h-2l-2 4 2 2h-2v2l-3 2-1 2-11 4-16 2-6 1-7 1h-27l-15-3h-9v-2h-7l-6-5v-2l5 2 2 1h91l5-5 1-8-3-6-1-1-9-1-56-1-7-2-3-6-1-5v-18l2-6 2-1 47-3 6-2 1-2v-9l-3-4-3-1-19-1h-26l-5-1-1-3v-34l5-2 69-3 3-3 1-2v-11l-4-4-3-1-12-1v-1z" fill="#08121D"/>
<path transform="translate(648,407)" d="m0 0h12l11 4 11 8 6 7 6 12 2 9-1 11-4 10-8 11-8 7-10 4h-19l-11-4-9-8-7-11-4-10-1-11 3-14 6-11 8-7 10-5z" fill="#132227"/>
<path transform="translate(493,407)" d="m0 0 11 1 10 4 9 7 6 7 5 12 1 6v8l-4 13-4 8-9 10-10 5-3 1h-17l-9-3-9-7-6-7-6-11-1-5v-17l4-12 6-8 9-6 8-4z" fill="#132227"/>
<path transform="translate(780,495)" d="m0 0 2 2v22l-3 4v-2h-2v2l2 2-3 1 1 10-1 3-5 5-12 11-14 11-18 14-9 6-15 9-20 9-24 9-17 4-20 3-19 2h-23l-36-4-20-4-17-6-21-8-16-9-19-12 1-3 7 3 5 2 2 1v2l8 2 4-1-3-1v-2l-5-2-7-5-2-4-8-5v-2l-3-1-7-6-5-4-7-6h3l32 24 22 12 15 7 19 7 19 5 25 4 9 1h24l30-4 24-5 30-11 16-8 20-11 17-12 13-10 12-11 15-15 3-8z" fill="#122026"/>
<path transform="translate(722,272)" d="m0 0 13 2 23 8 3 1v2l4 1-1 1v6l6 5 7 2h2l1-4-1-2 3-1 14 6 17 10 16 8 16 10 14 11 4 3-1 5-3-1v-3l-2 1v10l4 1 1-4 3 1 1 4v4l-4 1-18-12-12-9-11-8-29-15-15-8 3 11 1 13-1 7-1 1h-6l-5-4-6-16-5-19-9-4-27-9-18-5v-2l5-1 12-2-1-4 3-1z" fill="#08121D"/>
<path transform="translate(773,542)" d="m0 0 2 1-4 16-5 16-9 21-9 17-7 10-3-1v2h-4l-2 3h-2v2h-2v2l-5 1v-3l-6 1h-4-5l-3 2h-3v2h-2l-2 4-4 1 2-5 6-8 10-17 12-26h2l1-4 14-11 13-10 10-9z" fill="#5FB35E"/>
<path transform="translate(679,491)" d="m0 0h22l11 3 8 5 6 7v9l-7 9-9 6-5 1h-30l-9-2-6-4-7-8-1-7 5-7 8-6 11-5z" fill="#FFADAA"/>
<path transform="translate(718,249)" d="m0 0h18l21 3 30 9 12 5v2l-12 5-15 8-5 4-13-3-19-7-37-11-28-4-1-3 34-6z" fill="#A7E35D"/>
<path transform="translate(535,499)" d="m0 0h8l5 5 7 10 7 4 11 3 8-1 10-5 5-5 7-10 2-1h7l5 3 3 4v7l-6 9-8 9-13 8-11 3h-18l-12-4-10-6-9-9-5-9v-8l5-6z" fill="#122026"/>
<path transform="translate(906,366)" d="m0 0 4 5 6 7 1 2v13l-4 11-5 5-8 2-26 2-16-1-18-2-15-4-19-10-10-6-12-5-3-1-4-4-5-2v-2l5 1 14 6 25 6 17 2 17 1h18l26-2 11-4 3-4v-7l-2-5z" fill="#FDFDFD"/>
<path transform="translate(431,546)" d="m0 0 5 2 15 12 18 13 29 15 24 9 19 5 25 4 9 1h24l9-1h9v2l-10 3-6 4-6 1-1 3 6 1v1h-30l-26-3-20-4-17-6-21-8-16-9-19-12 1-3 7 3 5 2 2 1v2l8 2 4-1-3-1v-2l-5-2-7-5-2-4-8-5v-2l-3-1-7-6-5-4-7-6z" fill="#08121D"/>
<path transform="translate(465,491)" d="m0 0h11l10 4 7 6 4 5 1 3v7l-7 8-8 4-8 2h-17l-15-5-7-6-4-7v-6l6-7 8-4 12-3z" fill="#FFADAA"/>
<path transform="translate(278,809)" d="m0 0 21 1 9 3 4 5 2 5v7l-3 8-4 5-5 2-7 1h-31l-5-2-5-6-2-11 2-8 2-4 8-4 3-1z" fill="#07111D"/>
<path transform="translate(817,284)" d="m0 0h8l8 7 15 15 13 17 9 15 7 14h-3l-11-10-14-11-15-10-23-12-21-12-6-3v-2l23-6z" fill="#A6E25D"/>
<path transform="translate(415,553)" d="m0 0 9 5 21 16 6 5-4 13-1 5 6-1 11 6 4 5 1 2v9l-5 3-9-2-7-4-2 6-3-3-10-18-6-13-7-20-4-12z" fill="#FDFDFD"/>
<path transform="translate(780,495)" d="m0 0 2 2v22l-3 4v-2h-2v2l2 2-3 1 1 10-1 3-5 5-12 11-14 11-18 14-9 6-7-1-3-1v2l-15 4h-13l3-3 16-8 20-11 17-12 13-10 12-11 15-15 3-8z" fill="#08121D"/>
<path transform="translate(648,407)" d="m0 0h12l11 4 11 8 6 7 6 12 2 9-1 11-4 10-8 11-8 7-7 3-4-1 6-4h2l-1-3h2v-2h3l2-6 4-2 2-5 1-2h2l2-6v-3l1-10-2-1-1-7-2-4-1-4h-3l-2-3h2l-3-3h-3l-3-3-6-2-4 2h-5l1-4h-6v6l-3-1v-2h-7l-1 2-1-3-5 1-1 2-4 4-3-1v4l-3 1-2 6-1 5h-2l-1 4-2 7 3 1 2 5v4h2l2 4-1 6 2 4-3-1-7-13-2-10 1-12 4-11 6-9 8-6 8-4z" fill="#08121E"/>
<path transform="translate(671,299)" d="m0 0 5 2 4 3 9 2 5 5 2 4 6 5 4 1v2l4 2 3 2v2l5 2v2h2l1 4 6 8 4 1 3 2-4-5 1-4h5l5 3 10 2 2 4-5-2-5 1-1 3h2l1 5-1 3 3 1 1 3 2 1 7 15 3 7 3 5 3 3v2l3 1 2 6 1 4-3 9h-3l-6-16-8-16-8-13-9-11-8-7-5-4v-2l-4-2-26-24-2-4h-2l-5-5-10-9-2-1z" fill="#08121D"/>
<path transform="translate(598,930)" d="m0 0 6 1 8 9 1 2 5-1 9-10 3-1 3 3 1 5v32l-7 1-2-4v-15l-4 1-2 5-4 3-4-2-1-5h-4l-1 15-1 1h-5l-2-2-1-14v-15z" fill="#09151F"/>
<path transform="translate(539,930)" d="m0 0 5 2 8 8 1 2 5-1 9-9 6-1 1 3v36l-1 1h-5l-1-1-1-18-5 3-4 5-5-1-5-6-3-1 1 18-5 1-3-3-1-11v-16l2-10z" fill="#08141E"/>
<path transform="translate(493,407)" d="m0 0 11 1 10 4 9 7 6 7 5 12 1 6v8l-2 3-1-6-2-1h2l-4-8-3-8-9-12-3-3h-5l-7 2-7 1 1 3h-10l-4-2 1-1h-6l-5 5h-2l-6 12h-2l-1 7h-2l2 3 2 9 2 1 7 15 2 7 5 5-5-2-7-7-8-14-1-5v-17l4-12 6-8 9-6 8-4z" fill="#08121E"/>
<path transform="translate(700,931)" d="m0 0h21l6 3 4 6v11l-6 8 5 10v2l-6 1-5-4-4-6v-2h-5v10l-1 1h-6l-2-1-1-4zm11 10-2 2v5l2 2h10l2-2-1-5-3-2z" fill="#09131E"/>
<path transform="translate(498,930)" d="m0 0 9 2 6 4 6 9 1 9-5 8-8 7-5 2h-7l-6-3-6-7-3-9 1-9 4-6 5-5zm-3 11-6 5-1 6 4 6 4 3 7-1 5-4v-9l-6-6z" fill="#09141E"/>
<path transform="translate(567,215)" d="m0 0h4 4l2 1-2 4 8 10 9 12 6 11 3 10h17l-3 3-7 1h-11l-7-6-4-2h-4v-4h-2l1 3-3 1-8-13-2-7v-2l-5-10 2-7z" fill="#07111D"/>
<path transform="translate(381,931)" d="m0 0 3 2v5l-1 1-20 1 1 7 13-1 4 1v6l-1 1-15 2v4l18 1v9h-29l-1-1v-35l1-2z" fill="#0B1720"/>
<path transform="translate(584,210)" d="m0 0h3l10 14 10 17 9 19v3l-5 1h-10l-3-7-3-8-9-14-11-13-1-4z" fill="#E1A73D"/>
<path transform="translate(798,931)" d="m0 0h25l2 1v6l-6 2h-16l2 6h12l4 2-1 5-13 2-1 3 1 2h15l2 2v7l-1 1-8 1h-16l-3-2-1-28 1-9z" fill="#172A2A"/>
<path transform="translate(718,249)" d="m0 0h18l21 3 30 9 12 5v2l-6 2-4-1-7-3-19-4-30-4-37-1-15 3h-11l-1-3 34-6z" fill="#FAFCF7"/>
<path transform="translate(447,930)" d="m0 0h7l7 3 4 5v5h-20l-4 3v7l3 5 2 1 10-1 7-1 1 4-5 6-5 3-9 1-6-3-8-9-2-9 3-9 6-7z" fill="#0B171F"/>
<path transform="translate(486,424)" d="m0 0h10l5 3 2 4v12l-4 7-8 5h-8l-7-4-3-4v-11l6-8z" fill="#FEFEFE"/>
<path transform="translate(653,931)" d="m0 0h28l1 1-1 7-19 1v5l1 1 16 1v6l-16 2-1 5h18l1 1v8l-4 1-23-1z" fill="#152528"/>
<path transform="translate(646,423)" d="m0 0 9 1 5 5 1 3v9l-3 7-6 5-4 2-9-1-6-5-2-9 3-8 4-5z" fill="#FEFEFE"/>
<path transform="translate(812,358)" d="m0 0h8l24 3h21l8 5 4 3v3l-13 1-25-1-22-4-28-7v-1l19-1z" fill="#6EC061"/>
<path transform="translate(535,499)" d="m0 0h8l5 5 7 10 7 4 11 3-1 2-10-2-2-1h-8l-4-1v-2h-5l1 4 2 1 1 5 2 4v3l6 1-1-4-2-4 2-3 3 1 2 6 1 5-1 1 3 1v2l3 1-8-1-14-7-10-10-5-9v-8l5-6z" fill="#07111D"/>
<path transform="translate(760,931)" d="m0 0h8l9 3 2 2-1 5-9 1h-9l-4 4v9l5 5 8-1 9-1 2 1-1 5-7 6-3 1h-7l-7-3-6-7-2-5v-10l4-8 7-6z" fill="#09141F"/>
<path transform="translate(514,684)" d="m0 0h6l18 5 25 4 32 1 2 6h26l-3 3-10 1h-24l-23-3-17-4-20-7-12-5z" fill="#60B45E"/>
<path transform="translate(239,889)" d="m0 0 2 2-1 5-10 3-3 1-15 2-6 1-7 1h-27l-15-3h-9v-2h-7l-6-5v-2l5 2 2 1h91l5-5z" fill="#07111D"/>
<path transform="translate(605,499)" d="m0 0h7l5 3 3 4v7l-6 9-8 9-3 2-3-1h2v-2h-3l4-17h-2l-1 3-6 3-9 1-1 2h-6l3-2 10-5 5-5 7-10z" fill="#07121D"/>
<path transform="translate(557,310)" d="m0 0h6l6 5 2 5-1 9-9 6h-9l-5-4-2-3v-7l4-6z" fill="#FEFEFE"/>
<path transform="translate(278,809)" d="m0 0h7l2 2-3 3 4 2h-6v2l-8 4-6 5h-2l-2 4-3 2-4-1-1-1-3 4-1-8 2-8 2-4 8-4 3-1z" fill="#0B1920"/>
<path transform="translate(381,931)" d="m0 0 3 2v5l-21-1-9-2 2 4v12l-1 3 2 1v9l1 2h17l-1-5h9v9h-29l-1-1v-35l1-2z" fill="#142327"/>
<path transform="translate(833,290)" d="m0 0 7 1 2 3h3l6 8 4 7 2 1-2-5v-3h2l2 6 4 1 3 8 5 7-1 4-6 1-10-14-11-13-10-10z" fill="#08131E"/>
<path transform="translate(299,811)" d="m0 0 7 1 5 4 3 7v7l-3 8-4 5-5 2-7 1h-31v-1l20-1 4-2 13-1 3 2 3-6-2-4h-4l1-4 5-1-1-1-1-13h-5l-5 2-6-1 1-2h6l2 1z" fill="#142327"/>
<path transform="translate(594,218)" d="m0 0 2 1v2l6 2 7 9 2 1 4 7v3h2l2 11-1 5v3l-4-4-9-19-11-18z" fill="#08121E"/>
<path transform="translate(656,949)" d="m0 0 2 1v8l3-2v4h19l1 1v8l-4 1-22-1v-19z" fill="#142428"/>
<path transform="translate(816,365)" d="m0 0h22l5 1 6 1 8-1 10 1 3 3 3 2-9 1-25-1-22-4-4-2z" fill="#5FB35E"/>
<path transform="translate(700,931)" d="m0 0h21l6 3-2 3-5 2-2 2-7 1h-3v-5h-3l-1 4h-2l-1 8h-1z" fill="#132127"/>
<path transform="translate(276,815)" d="m0 0h12v1h-6v2l-8 4-6 5h-2l-2 4-3 2-4-1-1-1-3 4-1-8 1-6 2 3 1 2 4-2 3-5z" fill="#152227"/>
<path transform="translate(354,935)" d="m0 0 24 2 5 1v1h-23v12l1 13h8l2-3 4 1 1 4-1 1h-17l-2-5 1-7-3-1 2-8-2-1h2z" fill="#07111D"/>
<path transform="translate(843,326)" d="m0 0h6l6 2h2v2l6 2 6 4 8 16h-3l-11-10-14-11-6-4z" fill="#70C161"/>
<path transform="translate(772,958)" d="m0 0h6l2 1-1 5-7 6-3 1h-7l-4-1v-7l3-3 8-1z" fill="#111F25"/>
<path transform="translate(659,936)" d="m0 0h8l1 3-6 1v5l1 1 16 1v6l-19 2-1-8-4 1v-6l1-1v-4z" fill="#0E1D22"/>
<path transform="translate(598,930)" d="m0 0 6 1 3 4-7 1-2 7 1 2 1 12h2l3-3v15l-1 1h-5l-2-2-1-14v-15z" fill="#132227"/>
<path transform="translate(398,947)" d="m0 0h10l7 3 1 6-3 2h-12l-3-2-1-8z" fill="#09141E"/>
<path transform="translate(800,949)" d="m0 0h7l2 2-4 1-1 12 12 1 3 2h5l-1 3h-22l-2-11v-8z" fill="#07111D"/>
<path transform="translate(481,665)" d="m0 0 4 1 11 8 16 9 11 5v2l2 1-5-1-14-4-6-3-4-5-7-2-1-3h-2v-2l-4-2z" fill="#0A151F"/>
<path transform="translate(663,450)" d="m0 0 5 1 4 5-1 6-6 5-4-1-2-2v-9z" fill="#FEFEFE"/>
<path transform="translate(817,284)" d="m0 0h8v3l-4 2-24 4-4-1-1 3-5 1-3-2v-2l23-6z" fill="#FCFDFB"/>
<path transform="translate(760,931)" d="m0 0h8l9 3 2 2-1 5-9 1h-11l-1-2h12v-2l-9-1-4-4z" fill="#132227"/>
<path transform="translate(381,931)" d="m0 0 3 2v5l-21-1-10-1 1-4z" fill="#182628"/>
<path transform="translate(524,276)" d="m0 0 4 1-3 6h-2v2l-8 4-7 2-2-1 2-6z" fill="#0A141E"/>
<path transform="translate(505,450)" d="m0 0 5 3 2 4v5l-4 3-4 1-5-5 1-6z" fill="#FEFEFE"/>
<path transform="translate(582,190)" d="m0 0h10l7 3 1 2-21 2h-8v-3z" fill="#0B151F"/>
<path transform="translate(703,952)" d="m0 0h1l1 10-2 6 3 1 2-12 7 1 2 1v3h-2v-2h-5v10l-1 1h-6l-2-1-1-4v-11l3-1z" fill="#142327"/>
<path transform="translate(360,939)" d="m0 0h5l-2 1 1 7h-1v8l2 1v4l6 1-2 4h-8l-1-1-1-14z" fill="#132227"/>
<path transform="translate(765,571)" d="m0 0 1 4-9 21-9 17-5 5 2-5 6-10 3-6 3-11 2-7 5-5z" fill="#6DBF61"/>
<path transform="translate(804,959)" d="m0 0 3 1h15l2 2v5l-7 2-1-3-12-2z" fill="#182C2B"/>
<path transform="translate(514,684)" d="m0 0h6l18 5 10 2-3 2-2 2-6-1-21-8z" fill="#6CBE61"/>
<path transform="translate(656,949)" d="m0 0 2 1v8l3-2 1 5v2 6h-7v-19z" fill="#07111D"/>
<path transform="translate(493,931)" d="m0 0h3v2l2 1-2 3h-3v4l2 1-6 4-2-1-1-9 4-4z" fill="#132227"/>
<path transform="translate(689,291)" d="m0 0 7 6 13 12 12 11-1 2-12-10-4-2v-2h-2v-2l-2-1 1-2-5-2-5-5z" fill="#09141F"/>
<path transform="translate(294,841)" d="m0 0h7l2 3-1 1-7 1h-31v-1l20-1 4-2z" fill="#172528"/>
<path transform="translate(664,947)" d="m0 0h15v6l-16 1 4-2-1-3z" fill="#162427"/>
<path transform="translate(772,958)" d="m0 0h6l2 1-1 5-4 3-6-3h-2l-1-4z" fill="#142327"/>
<path transform="translate(569,931)" d="m0 0h4l1 3v36l-1 1h-5l-1-1v-6l3 4 1 1 1-2v-28l-2-4z" fill="#142227"/>
<path transform="translate(217,812)" d="m0 0 14 1 5 3 1-2 1 4v9l-1-4h-2l-2-6h-3l-4-2-1 3-4-3h-4z" fill="#122026"/>
<path transform="translate(680,277)" d="m0 0 11 2v3l2 1-6 3-4-2-3-4z" fill="#E9DB61"/>
<path transform="translate(654,942)" d="m0 0 2 4 3 1 2 6-1 2h2v5l-2-3-3 2v-9h-1v9l-1 10h-1z" fill="#132127"/>
<path transform="translate(675,590)" d="m0 0 4 1-7 4-10 4-14 2 1-2 21-7z" fill="#09141F"/>
<path transform="translate(201,845)" d="m0 0h9l3 3-1 2h-21v-1l7-2h5z" fill="#315238"/>
<path transform="translate(784,361)" d="m0 0h9l15 4v2l4 1-11-1-17-5z" fill="#0A151F"/>
<path transform="translate(659,936)" d="m0 0h8l1 3h-8l-1 8-4 1v-6l1-1v-4z" fill="#07111D"/>
<path transform="translate(230,746)" d="m0 0 8 2v2h2l1 7-1 6h-1l-1-9-4-4-3-1-12-1v-1z" fill="#09141F"/>
<path transform="translate(533,438)" d="m0 0h1l1 6v8l-2 3-1-6-2-1h2l-3-6v-3z" fill="#0B1620"/>
<path transform="translate(489,592)" d="m0 0 9 2v2l6 1 2 2-5 1-9-3-3-3z" fill="#132127"/>
<path transform="translate(598,930)" d="m0 0 6 1 3 4-7 1-1 4-3 1 1-9z" fill="#20352E"/>
<path transform="translate(757,591)" d="m0 0 1 3-10 19-5 5 2-5 6-10 5-11z" fill="#6BBD61"/>
<path transform="translate(199,870)" d="m0 0h9l-1 2-3 1h-34v-1l29-1z" fill="#132127"/>
<path transform="translate(640,601)" d="m0 0h6l-2 2-17 3-6 1-2-1 3-2z" fill="#0A1620"/>
<path transform="translate(353,936)" d="m0 0 3 3v12l-2 4h-1z" fill="#132127"/>
<path transform="translate(764,529)" d="m0 0h2l-2 4-11 11-3-1 6-7z" fill="#F4CD58"/>
<path transform="translate(725,962)" d="m0 0 4 4 1 5-6 1-2-1 2-6z" fill="#122026"/>
<path transform="translate(765,961)" d="m0 0h2v3l3-1v2l5 1-1 3-5-1h-4z" fill="#09151E"/>
<path transform="translate(641,418)" d="m0 0 8 1 2 4-9 2-1-4z" fill="#152629"/>
<path transform="translate(772,376)" d="m0 0 5 1 14 6-4 1-7-2-8-4z" fill="#FEFEFE"/>
<path transform="translate(669,962)" d="m0 0 5 1 1 1v5h-6z" fill="#07111D"/>
<path transform="translate(701,266)" d="m0 0h2v2l2 1h-2l-1 3-10 1 2-4h6z" fill="#08121E"/>
<path transform="translate(572,244)" d="m0 0h3l3 8-1 4-4-5-2-5z" fill="#152728"/>
<path transform="translate(741,549)" d="m0 0h3l-2 4-9 6-3-1 8-6v-2z" fill="#F4CC58"/>
<path transform="translate(791,290)" d="m0 0 3 1-2 4-5 1-3-2v-2z" fill="#E1F2D6"/>
<path transform="translate(772,380)" d="m0 0h2l2 10h-5l-1-5z" fill="#07111D"/>
<path transform="translate(624,949)" d="m0 0 3 2 1 4h-2l1 9v4l-2-1v-15h-2z" fill="#132127"/>
<path transform="translate(398,947)" d="m0 0h10l-1 2h-7l-1 7-2-3v-5z" fill="#152528"/>
<path transform="translate(493,293)" d="m0 0h2v5l-5 2h-4l1-3z" fill="#09131E"/>
<path transform="translate(184,867)" d="m0 0 11 2v1h-18l3-2z" fill="#132127"/>
<path transform="translate(781,383)" d="m0 0 10 1 9 6-2 1-11-5-6-2z" fill="#4C8E50"/>
<path transform="translate(629,930)" d="m0 0 3 1 1 5h-6l-1-4z" fill="#152528"/>
<path transform="translate(431,546)" d="m0 0 5 2 10 8-3 1-5-4-7-6z" fill="#09141F"/>
<path transform="translate(871,343)" d="m0 0h2l4 10-4-2-3-4z" fill="#68B95D"/>
<path transform="translate(600,959)" d="m0 0 3 1 1 7-4-1-1-5z" fill="#07111D"/>
<path transform="translate(908,358)" d="m0 0 4 5 3 6v5l-3-4-4-9z" fill="#FEFEFE"/>
<path transform="translate(236,814)" d="m0 0 2 4v9l-1-4h-2l-2-8 3 1z" fill="#182B2A"/>
<path transform="translate(651,415)" d="m0 0h8l1 2h-2v2l-6 1v-2l-2-1z" fill="#0F1C23"/>
<path transform="translate(774,356)" d="m0 0h9l6 2-1 2-10-2z" fill="#6CBF61"/>
<path transform="translate(758,351)" d="m0 0 7 1 4 2v2l-10-2z" fill="#0B1721"/>
<path transform="translate(671,301)" d="m0 0 4 2 8 7v3l-5-4v-2l-4-2-3-2z" fill="#F1C553"/>
<path transform="translate(167,775)" d="m0 0h7l-4 2-2 3h-2v5l-2-1 1-7z" fill="#132127"/>
<path transform="translate(797,363)" d="m0 0 7 1 4 1v2l4 1-11-1-1-2z" fill="#0B1720"/>
<path transform="translate(686,258)" d="m0 0h5l-2 1 1 3-11-1 2-2z" fill="#E8C853"/>
<path transform="translate(733,633)" d="m0 0 2 1-4 4-3 5-3 2 1-4z" fill="#0D1922"/>
</svg>
